<?xml version="1.0" encoding="UTF-8" standalone="no"?>
<!-- Created with Inkscape (http://www.inkscape.org/) -->
<svg xmlns:dc="http://purl.org/dc/elements/1.1/" xmlns:cc="http://creativecommons.org/ns#" xmlns:rdf="http://www.w3.org/1999/02/22-rdf-syntax-ns#" xmlns:svg="http://www.w3.org/2000/svg" xmlns="http://www.w3.org/2000/svg" xmlns:sodipodi="http://sodipodi.sourceforge.net/DTD/sodipodi-0.dtd" xmlns:inkscape="http://www.inkscape.org/namespaces/inkscape" width="201.76414" height="241.63385" id="svg2" sodipodi:version="0.32" inkscape:version="0.46" sodipodi:docname="BTS-Logo.svg" inkscape:output_extension="org.inkscape.output.svg.inkscape" version="1.0" style="display:inline">
  <defs id="defs4"/>
  <sodipodi:namedview id="base" pagecolor="#ffffff" bordercolor="#666666" borderopacity="1.0" inkscape:pageopacity="0.0" inkscape:pageshadow="2" inkscape:zoom="0.94894149" inkscape:cx="127.64764" inkscape:cy="91.594486" inkscape:document-units="px" inkscape:current-layer="layer2" showgrid="false" showguides="true" inkscape:guide-bbox="true" inkscape:window-width="1280" inkscape:window-height="753" inkscape:window-x="-4" inkscape:window-y="-4"/>
  <metadata id="metadata7">
    <rdf:RDF>
      <cc:Work rdf:about="">
        <dc:format>image/svg+xml</dc:format>
        <dc:type rdf:resource="http://purl.org/dc/dcmitype/StillImage"/>
      </cc:Work>
    </rdf:RDF>
  </metadata>
  <g inkscape:groupmode="layer" id="layer2" inkscape:label="Lines" style="display:inline" sodipodi:insensitive="true" transform="translate(-267.0054,-212.08047)">
    <path style="opacity:1;fill:#19439f;fill-opacity:1;fill-rule:evenodd;stroke:none;stroke-width:1.4000001;stroke-linecap:round;stroke-linejoin:round;marker:none;marker-start:none;marker-mid:none;marker-end:none;stroke-miterlimit:3.86369991;stroke-dasharray:none;stroke-dashoffset:0;stroke-opacity:1;visibility:visible;display:inline;overflow:visible;enable-background:accumulate" d="M 461.65591,261.9362 L 462.06697,285.77754 C 431.67944,285.57826 414.38793,293.97771 395.84861,305.47026 C 368.62545,323.05785 353.3856,354.12667 343.64428,391.38133 C 340.70673,410.427 338.16325,422.75287 339.12264,448.51835 L 313.63706,448.51835 C 315.79351,395.80315 319.0458,388.01719 322.26927,379.0496 C 328.20188,355.91488 337.165,336.41678 348.57697,319.85728 C 360.8491,303.68696 373.74113,288.96309 389.27168,280.39574 C 405.34963,270.91584 421.45902,261.68114 461.65591,261.9362 z" id="path2654" sodipodi:nodetypes="cccccccccc"/>
    <path style="opacity:1;fill:#e1250a;fill-opacity:1;fill-rule:evenodd;stroke:none;stroke-width:1.4000001;stroke-linecap:round;stroke-linejoin:round;marker:none;marker-start:none;marker-mid:none;marker-end:none;stroke-miterlimit:3.86369991;stroke-dasharray:none;stroke-dashoffset:0;stroke-opacity:1;visibility:visible;display:inline;overflow:visible;enable-background:accumulate" d="M 273.87713,261.7497 L 273.98706,285.30354 C 304.56108,284.73127 321.6891,293.97771 340.22842,305.47026 C 368.1605,326.60243 381.82079,356.76147 391.19958,392.20345 C 393.5997,411.06997 395.43028,421.92504 396.95439,448.51835 L 422.43997,448.51835 C 420.28352,395.80315 417.03123,388.01719 413.80776,379.0496 C 407.87515,355.91488 398.91203,336.41678 387.50006,319.85728 C 375.22793,303.68696 362.3359,288.96309 346.80535,280.39574 C 329.10994,270.91584 311.51047,261.84039 273.87713,261.7497 z" id="path2662" sodipodi:nodetypes="cccccccccc"/>
    <path style="opacity:1;fill:#123ea1;fill-opacity:1;fill-rule:evenodd;stroke:none;stroke-width:1.4000001;stroke-linecap:round;stroke-linejoin:round;marker:none;marker-start:none;marker-mid:none;marker-end:none;stroke-miterlimit:3.86369991;stroke-dasharray:none;stroke-dashoffset:0;stroke-opacity:1;visibility:visible;display:inline;overflow:visible;enable-background:accumulate" d="M 355.90488,448.49445 L 378.92411,448.49445 C 379.15429,434.46919 381.2319,415.68206 384.75005,395.08085 C 388.6782,378.24057 396.16894,361.90923 407.76928,346.16498 C 414.475,340.36541 421.419,334.53937 437.7765,327.66738 C 447.63136,325.89314 455.15115,326.23512 461.76629,326.6207 L 461.95278,301.13512 C 452.71834,301.18794 443.5664,301.40576 435.31015,303.41497 C 425.3278,305.50132 414.74479,309.26732 397.49284,322.73468 C 384.62337,335.02419 376.69646,348.96122 370.36303,363.4294 C 360.04317,389.34009 354.96829,419.57794 355.90488,448.49445 z" id="path2658" sodipodi:nodetypes="ccccccccccc"/>
    <path style="opacity:1;fill:#df2708;fill-opacity:1;fill-rule:evenodd;stroke:none;stroke-width:1.4000001;stroke-linecap:round;stroke-linejoin:round;marker:none;marker-start:none;marker-mid:none;marker-end:none;stroke-miterlimit:3.86369991;stroke-dasharray:none;stroke-dashoffset:0;stroke-opacity:1;visibility:visible;display:inline;overflow:visible;enable-background:accumulate" d="M 379.0246,448.70785 L 355.79197,448.70785 C 355.56179,434.68259 353.83984,415.68206 350.32169,395.08085 C 346.39354,378.24057 338.9028,361.90923 327.30246,346.16498 C 320.59674,340.36541 313.65274,334.53937 297.29524,327.66738 C 287.44038,325.89314 283.79194,325.53187 274.19283,325.54446 L 274.22621,300.80487 C 301.30154,300.53802 318.61151,308.47971 337.5789,322.73468 C 350.44837,335.02419 358.37528,348.96122 364.70871,363.4294 C 375.02857,389.34009 379.96119,419.79134 379.0246,448.70785 z" id="path2664" sodipodi:nodetypes="cccccccccc"/>
  </g>
  <g inkscape:groupmode="layer" id="layer3" inkscape:label="BTS" style="display:inline" sodipodi:insensitive="true" transform="translate(-267.0054,-212.08047)">
    <path style="opacity:1;fill:#212320;fill-opacity:1;fill-rule:evenodd;stroke:none;stroke-width:1.4000001;stroke-linecap:round;stroke-linejoin:round;marker:none;marker-start:none;marker-mid:none;marker-end:none;stroke-miterlimit:3.86369991;stroke-dasharray:none;stroke-dashoffset:0;stroke-opacity:1;visibility:visible;display:inline;overflow:visible;enable-background:accumulate" d="M 274.375,218.21875 L 274.09375,246.25 L 328.46875,246.3125 C 336.79373,242.66065 335.6557,236.92267 332.78125,232.03125 C 336.91233,224.71855 334.75967,220.71548 329.0625,218.21875 L 274.375,218.21875 z M 282.03125,222.75 L 325.3125,223.15625 C 328.36652,224.25685 327.89809,228.61614 325.21875,229.59375 L 290.53125,229.46875 L 286.0625,234.46875 L 325.15625,234.625 C 328.55713,235.34122 327.66313,240.16674 325.21875,240.625 L 282.15625,240.53125 L 282.03125,222.75 z" id="path3463"/>
    <path style="opacity:1;fill:#212320;fill-opacity:1;fill-rule:evenodd;stroke:none;stroke-width:1.4000001;stroke-linecap:round;stroke-linejoin:round;marker:none;marker-start:none;marker-mid:none;marker-end:none;stroke-miterlimit:3.86369991;stroke-dasharray:none;stroke-dashoffset:0;stroke-opacity:1;visibility:visible;display:inline;overflow:visible;enable-background:accumulate" d="M 338.96079,222.54876 L 342.4175,218.2787 L 401.07988,218.17704 L 396.91149,222.95543 L 372.00286,222.85376 L 372.04735,246.31791 L 363.97109,246.30945 L 363.97109,222.75209 L 338.96079,222.54876 z" id="path3470" sodipodi:nodetypes="ccccccccc"/>
    <path style="opacity:1;fill:#212320;fill-opacity:1;fill-rule:evenodd;stroke:none;stroke-width:1.4000001;stroke-linecap:round;stroke-linejoin:round;marker:none;marker-start:none;marker-mid:none;marker-end:none;stroke-miterlimit:3.86369991;stroke-dasharray:none;stroke-dashoffset:0;stroke-opacity:1;visibility:visible;display:inline;overflow:visible;enable-background:accumulate" d="M 461.87729,218.07537 L 408.55123,218.04559 C 405.77066,218.04953 401.03271,221.92362 400.97821,226.5138 C 400.92371,231.10369 404.39281,234.63701 408.62797,235.09602 L 452.56562,235.33749 C 455.33395,235.53424 456.24959,236.85746 456.1803,238.34939 C 456.11101,239.84132 455.2891,240.8516 453.0286,241.09443 L 406.16327,241.05231 L 401.79578,246.33801 L 456.69134,246.46945 C 457.7915,246.56073 462.8441,244.18555 462.83952,237.93038 C 462.83495,231.67521 458.13609,230.10427 456.78155,230.14407 L 409.19765,230.0936 C 408.11764,230.02088 406.77961,228.78713 406.79463,226.84023 C 406.80967,224.89145 407.97558,223.60448 409.09599,223.28185 L 456.89556,223.39188 L 461.87729,218.07537 z" id="path3472" sodipodi:nodetypes="cczcczcccczcczccc"/>
  </g>
</svg>