<?xml version="1.0" encoding="utf-8"?>
<!-- Generator: Adobe Illustrator 21.0.0, SVG Export Plug-In . SVG Version: 6.00 Build 0)  -->
<svg version="1.1" id="Layer_1" xmlns="http://www.w3.org/2000/svg" xmlns:xlink="http://www.w3.org/1999/xlink" x="0px" y="0px"
	 viewBox="0 0 191.1 235.6" width="284.801780769" height="351.121400048" style="enable-background:new 0 0 191.1 235.6;" xml:space="preserve">
<style type="text/css">
	.st0{fill:#E31F27;}
</style>
<path class="st0" d="M152.2,215.4c0,0-6.5,5.3-8.3,6.4c0,0-1,1-1.7,0.7c0,0-0.3-0.5,0.2-1c0,0,6-7.1,9.6-9.8c0,0,1-0.8,1.3,0.2
	C153.3,212,154.1,213.4,152.2,215.4 M45.1,215.7c0,0-0.3-0.2-0.1-0.7c0-0.1,3.7-4.9,4.5-5.2c0,0,0.9-0.6,1.6,0.1
	c0,0,0.9,0.9-0.9,2.3c0,0-2.7,2.7-4.2,3.3C46.1,215.5,45.3,216,45.1,215.7 M174.7,204.7c0,0,3.2-11.3,6.7-15.1c0,0,0.9-1.3,1.8-1.2
	c0,0,0.9,0.4,0.1,2.2c0,0-5.6,12.9-7.6,15.4c0,0-0.7,0.8-1.2,0.9C174.5,206.8,174.2,206.7,174.7,204.7 M188.3,224.2
	c1-2.1,0.9-3.5,0.9-3.5c-0.6-1.4-1.7,0.3-1.7,0.3c-0.8,2.1-2.9,4.3-2.9,4.3c-0.9,0.8-2.1,1.6-3.4,2.1c-7,2.7-9.2-1.6-9.2-1.6
	c-1.2-1.7-0.5-4.2-0.5-4.2c0-0.5,0.1-0.9,0.2-1.2c0,0,0.3-0.9,0.9-1.8c0.4-0.7,0.7-1.1,0.7-1.1l2.7-4c2.4-3.7,7.7-12,8.8-16.3
	c0,0,3.4-9.8,3.5-13.5c0,0-0.2-4.3-4.6-3.4c0,0-2.9-0.1-7.5,9c0,0-6.7,13.3-7.9,22.8c0,0-0.6,2.5-1.2,3.5c-1.2,2-4.1,5.1-5.8,5.9
	c0,0-2.3,1.3-2.7-0.7c0,0-0.6-2.5,0.2-5.6c0,0,0.9-3.6-0.1-5.2c0,0-0.5-1.1-1.4-1.5c0,0,0.4-1.1,1.7-2.6c0,0,1.2-1.8-0.4-2.7
	c0,0-1.4-1-4.4,0.9c0,0-17,12.4-23.9,19.3c0,0-1.4,1.5-2.8,1.5c0,0-1,0.2-0.6-1.6c0,0,1.4-4,1.4-7.7c0,0-0.1-2.8-0.5-4.9
	c-1-5.4-6.7-4.5-6.7-4.5c-0.8,0-1.7,0-2.3-0.2c0,0-3.8-1-4.3,2.4c0,0-0.2-0.2,0.1,3.4c0,0,0.4,0.5-1.1,1.9c0,0-7.8,9.1-10.4,10.8
	c0,0-0.6,0.7-1.1,0c0,0-0.4-0.8-0.2-1.8c0,0,3.4-17.6,5.3-19.2c0,0,0.1-0.7,2.4-0.6c0,0,0.8,0.1,1.5-0.5c0,0,2.2-2.2,2.6-2.7
	c0,0,0.8-0.7-0.6-1.6c0,0-0.7-0.7-1.9-1.4c0,0-0.8-0.4-0.1-1.7l4-8.5c0,0,0.9-1.3,0-2c0,0-1.3-1-4.1,1.1c0,0-2.5,1.8-6.1,8.8
	c0,0-1.2,1.6-4.1,1.8l-8.9,0c-1.1,0.2-3.3,3.6-3.3,3.6c-0.6,0.8,0,1.5,0,1.5c0.4,0.6,1.4,1.5,4,1.2c0,0,6.6,0,7.5,0.1
	c0,0,0.5-0.1,0.8,0.2c0,0,0.5,0.1-0.7,1.8c0,0-11,14.6-13.3,17c0,0-0.6,0.9-1,0c0,0-0.2-0.2-0.3-1.9l-0.1-1.4
	c-0.4-5.2-1.8-6.3-3-6.4c-1.2-0.4-3.1,1.3-3.1,1.3c-0.7,0.6-1.2,1.2-1.2,1.2c-2,2.1-6,6.1-7.4,6.8c0,0,2.2-5.9,2.2-7.3
	c0,0,0.5-2.7-2-3.2c0,0-1.7-0.6-4,1.8c0,0-9.2,11.8-17.9,11.7c0,0-1.6,0-2.9-1.6c0,0-1.3-2,0-3c0,0,6.9-4.7,8.2-7.1c0,0,3-3.1,1.6-7
	c0,0-2.3-3.5-6.8-1c0,0-4.3,2.6-6.1,4.9c0,0-3.8,4.7-4.4,10.9c0,0-8.8,7.3-14.9,8.2c0,0-8.8,1.4-12-7c0,0-3.3-3.1,0.2-17.1
	c0.9-3.5,2.4-7.2,4.9-10.2c0,0,5.3-6.5,8.9-6.5c0,0,3.2-0.7,5.2,1.3c0,0,2,1.4,0.4,4.9c0,0-3.3,5.4-4.2,10.1c0,0-0.3,1.1-0.4,2.4
	c0,0,0,3.7,4.6,1.6l2.8-1.5c0,0,1.5-0.7,1.6-3.2c0.1-1.9,0.1-4.4,1.2-7.6c0,0,3.2-8.4-3-13.1c0,0-6.6-4.6-16.2,4.2
	c-15,13.7-14.8,31.4-14.8,31.4c0.6,5.8,3,12.8,11.3,14.6c0,0,13.7,3.5,24.3-9.5c0,0,1.8,10,12.5,6.5c0,0,10.3-4.7,13.6-9.5
	c0,0,0.6-0.9,1.2-0.8c0,0,0.4-0.1-0.1,1c0,0-2.6,7.3-2.4,9.2c0,0,0,1.9,1.5,1.8c2.6-0.4,7-4.8,7-4.8l6.3-6.4c0,0,3.2-3.4,3.4,0.7
	c0,0,0,6.5,1.3,9.2c0,0,1.5,3,3.4,0.3c0,0,10.2-13.2,11.6-14.9c0,0-2,6.5-2.3,12.6c0,0-0.1,2,0.9,3.8c0,0,0.8,1.7,3.9,1
	c0,0,17.5-18,18.9-18.8c0,0,1.7-1.2,3.1,0c0,0,1.4,1,0.1,3.7c0,0-3.6,8.8-3.5,11.9c0,0,0.1,2.8,1.7,3.4c0,0,1.2,0.7,4.2-1.6l9.2-6.3
	c0,0,0.6-0.5,1.1-0.1c0,0,0.4,0.6-0.6,2.3c0,0-1.7,2.4,2.7,4.1c0,0,0.7,0.5,1.7-0.1c0,0,5.8-3.1,9.9-7.2c0,0,1.8-1.8,2.7-1.2
	c0,0-1,3.1,2.6,4.7c0,0,3.1,1.4,7.2-1.1c0,0,4.8-3.1,5.9-4.7c0,0,0.5-0.5,1-0.4c0.8,0,0.3,1.2,0.3,1.2c-0.2,0.5-0.2,1.1-0.2,1.5
	c0,0-0.2,0.8-0.1,2c0,0-0.7,6.6,7.2,6.9c0,0,3.3,0.2,6.5-1.9C187.5,227.6,188.3,224.2,188.3,224.2"/>
<path class="st0" d="M102.8,131.7v29.2c0,0-0.4,14.1,14.2,14.1c14.6,0,14-14.1,14-14.1v-20.6l13.1,13.4l16.7,16.5
	c0,0,10.9,10.4,21.2,0.1c10.2-10.3-0.6-20.2-0.6-20.2l-25.3-25l-6.1-6.3h19.9c0,0,16.5,0.4,16.5-14.1c0-14.4-16.5-13.5-16.5-13.5
	h-26.7c0,0-1.9-0.2-2,1.9c-0.1,2.1-1.1,15.4-12.9,25.8c0,0-8.7,9.8-24,10.7C104.3,129.7,102.8,129.7,102.8,131.7"/>
<path class="st0" d="M142.9,87.3h29.3c0,0,14.1,0.4,14.1-14.2c0-14.5-14.1-14-14.1-14h-20.5L165.1,46l16.5-16.7
	c0,0,10.4-10.9,0.1-21.2c-10.3-10.2-20.2,0.6-20.2,0.6l-25,25.3l-6.2,6V20c0,0,0.5-16.6-13.9-16.6c-14.4,0-13.6,16.6-13.6,16.6v26.6
	c0,0-0.4,2.1,1.7,2.1c2.1,0.1,15.7,1.2,26.1,13.1c0,0,9,8.4,10.9,23.9C141.6,85.8,141.6,87.3,142.9,87.3"/>
<path class="st0" d="M58.3,91.2H28.8c0,0-14.1-0.4-14.1,14.2c0,14.6,14.1,14,14.1,14h20.6l-13,13.1l-16.5,16.7
	c0,0-10.8,11.2-0.6,21.4c10.3,10.2,20.8-1,20.8-1L65,144.4l6.3-6.1v19.9c0,0-0.4,16.8,14.1,16.8c14.4,0,13.5-16.8,13.5-16.8V132
	c0,0,0.2-1.6-1.9-1.9c-2.5-0.3-15.4-1.1-26.2-13c0,0-8.8-8.3-10.7-23.9C60.1,93.3,60.3,91.2,58.3,91.2"/>
<path class="st0" d="M98.9,46.8V17.7c0,0,0.5-14.3-14-14.3c-14.5,0-14,14.1-14,14.1v20.6L57.7,24.7L41,8.2c0,0-11.8-10.6-22-0.4
	c-10.2,10.3,1.4,20.4,1.4,20.4l25.3,25l6.1,6.3H31.9c0,0-17-0.4-17,14.1c0,14.4,17,13.6,17,13.6h26.3c0,0,1.8-0.2,1.9-2.3
	c0.1-2.1,1.4-14.7,13-25.2c0,0,8.8-10,24.4-11.1C97.4,48.7,98.9,48.7,98.9,46.8"/>
<path class="st0" d="M138.2,91.1c-1.2,19.6-17.7,35.6-37.6,35.6c-20.6,0-37.4-16.7-37.4-37.4c0-20.6,16.7-37.4,37.4-37.4
	c19.8,0,36.2,15.5,37.4,35l-18.1,0c-1.2-9.6-9.4-17.3-19.4-17.3c-10.8,0-19.6,8.8-19.6,19.6c0,10.8,8.8,19.6,19.6,19.6
	c10,0,18.4-8.1,19.5-17.8L138.2,91.1z"/>
</svg>
